<svg fill="none" height="597" viewBox="0 0 554 597" width="554" xmlns="http://www.w3.org/2000/svg" xmlns:xlink="http://www.w3.org/1999/xlink"><filter id="a" color-interpolation-filters="sRGB" filterUnits="userSpaceOnUse" height="596.112" width="552.624" x=".688133" y=".074432"><feFlood flood-opacity="0" result="BackgroundImageFix"/><feColorMatrix in="SourceAlpha" result="hardAlpha" type="matrix" values="0 0 0 0 0 0 0 0 0 0 0 0 0 0 0 0 0 0 127 0"/><feOffset dy="79.1304"/><feGaussianBlur stdDeviation="59.3478"/><feComposite in2="hardAlpha" operator="out"/><feColorMatrix type="matrix" values="0 0 0 0 0.0277083 0 0 0 0 0.143292 0 0 0 0 0.316667 0 0 0 0.08 0"/><feBlend in2="BackgroundImageFix" mode="normal" result="effect1_dropShadow_565_2027"/><feBlend in="SourceGraphic" in2="effect1_dropShadow_565_2027" mode="normal" result="shape"/></filter><filter id="b" color-interpolation-filters="sRGB" filterUnits="userSpaceOnUse" height="467.525" width="441.265" x="56.3678" y="64.3684"><feFlood flood-opacity="0" result="BackgroundImageFix"/><feColorMatrix in="SourceAlpha" result="hardAlpha" type="matrix" values="0 0 0 0 0 0 0 0 0 0 0 0 0 0 0 0 0 0 127 0"/><feOffset dy="79.1304"/><feGaussianBlur stdDeviation="59.3478"/><feComposite in2="hardAlpha" operator="out"/><feColorMatrix type="matrix" values="0 0 0 0 0.0277083 0 0 0 0 0.143292 0 0 0 0 0.316667 0 0 0 0.04 0"/><feBlend in2="BackgroundImageFix" mode="normal" result="effect1_dropShadow_565_2027"/><feBlend in="SourceGraphic" in2="effect1_dropShadow_565_2027" mode="normal" result="shape"/></filter><filter id="c" color-interpolation-filters="sRGB" filterUnits="userSpaceOnUse" height="273.008" width="258.611" x="148.066" y="121.818"><feFlood flood-opacity="0" result="BackgroundImageFix"/><feColorMatrix in="SourceAlpha" result="hardAlpha" type="matrix" values="0 0 0 0 0 0 0 0 0 0 0 0 0 0 0 0 0 0 127 0"/><feOffset dy="38.9513"/><feGaussianBlur stdDeviation="34.0824"/><feComposite in2="hardAlpha" operator="out"/><feColorMatrix type="matrix" values="0 0 0 0 0.0561979 0 0 0 0 0.119918 0 0 0 0 0.345833 0 0 0 0.1 0"/><feBlend in2="BackgroundImageFix" mode="normal" result="effect1_dropShadow_565_2027"/><feBlend in="SourceGraphic" in2="effect1_dropShadow_565_2027" mode="normal" result="shape"/></filter><g filter="url(#a)"><path d="m268.469 41.9255c5.279-3.0479 11.783-3.0479 17.062 0l140.554 81.1485c5.28 3.048 8.532 8.681 8.532 14.777v162.298c0 6.096-3.252 11.729-8.532 14.777l-140.554 81.148c-5.279 3.048-11.783 3.048-17.062 0l-140.554-81.148c-5.28-3.048-8.532-8.681-8.532-14.777v-162.298c0-6.096 3.252-11.729 8.532-14.777z" fill="#fff"/></g><g filter="url(#b)"><path d="m268.469 106.219c5.279-3.047 11.784-3.047 17.063 0l84.874 49.003c5.279 3.048 8.531 8.68 8.531 14.776v98.005c0 6.096-3.252 11.728-8.531 14.776l-84.874 49.002c-5.279 3.048-11.784 3.048-17.063 0l-84.874-49.002c-5.279-3.048-8.531-8.68-8.531-14.776v-98.005c0-6.096 3.252-11.728 8.531-14.776z" fill="#fff"/></g><g filter="url(#c)"><path d="m270.067 152.988c4.52-2.609 10.088-2.609 14.607 0l46.534 26.866c4.519 2.61 7.303 7.432 7.303 12.65v53.733c0 5.219-2.784 10.041-7.303 12.65l-46.534 26.866c-4.519 2.609-10.087 2.609-14.607 0l-46.534-26.866c-4.519-2.609-7.303-7.431-7.303-12.65v-53.733c0-5.218 2.784-10.04 7.303-12.65z" fill="#fff"/></g></svg>